<?xml version="1.0" encoding="UTF-8"?>
<svg id="Capa_2" data-name="Capa 2" xmlns="http://www.w3.org/2000/svg" viewBox="0 0 585.1 109.88">
  <g id="Capa_1-2" data-name="Capa 1">
    <g>
      <path d="m89.08,41.03c-3.7,7.16-7.43,14.3-11.16,21.45-1.89,3.64-3.52,9.07-6.27,12.1-2.47,2.72-5.86,2.15-9.46,2.5-3.06.3-7.04,1.72-9.8.06-2.56-1.55-4.32-7.21-5.69-9.75-2.07-3.85-4.16-7.69-6.26-11.53-1.3-2.38-3.69-9.29-6.17-10.67-1.91,2.03-.32,12.53-.32,15.13,0,6.17,0,12.33-.04,18.5-.03,5.86-.91,7.38,4.64,8.65,3.28.75,3.77.61,4.27,4.09.41,2.8,1.24,9.4-.79,11.52-1.4,1.46-6.1,1.3-8.15,1.65-3.63.62-7.27,1.25-10.9,1.88-5.9,1.03-11.79,2.17-17.7,3.11-7.31,1.16-4.91-4.5-4.91-10.37,0-7.69,2.63-4.25,6.51-8.69,2.74-3.14,1.66-9.08,1.62-12.82-.14-12.88.03-25.77.11-38.65.03-5.29.53-11.07-.14-16.31-.66-5.14-3.83-2.39-6.88-5.57C-.42,15.22.35,11.22.36,8.6.37,2.81-.24.93,5.98.87c6.41-.05,12.83,0,19.25,0,4.57,0,10.86-1.57,14.17,1.9,3.93,4.14,6.4,12.26,9.05,17.31,3.24,6.18,6.48,12.36,9.73,18.54.65,1.23,2.59,6.81,3.7,7.29,1.78.77.94.09,2.14-1.12,4.11-4.12,6.85-13.38,9.48-18.55,2.95-5.77,5.89-11.55,8.82-17.32,3.03-5.95,3.35-8.07,10.22-8.07,6.46,0,12.93-.02,19.39-.04,6.12-.02,11.85-2.4,12.01,4.92.08,3.86,1.11,8.15-2.13,10.4-2.38,1.64-5,.92-6.34,3.87-1.42,3.14-.34,8.79-.34,12.12,0,6.84-.01,13.68-.02,20.52,0,6.38-.08,12.77-.05,19.15.03,6.04,1.13,4.75,5.94,6.67,3.03,1.21,2.8,1.7,2.92,5.02.2,5.66,1.36,9.21-4.85,10.09-6.91.98-13.9,1.64-20.83,2.47-2.68.32-14.46,3.59-16.61,1.61-1.86-1.71-1.56-12.26.1-14.26,1.71-2.07,5.45-1.56,6.96-4.19,2.07-3.61.56-10.63.55-14.59,0-7.32,0-14.64-.01-21.96,0-.3-.05-.59-.14-1.61Z"/>
      <path d="m283.19,84.28c-5.3,0-14.18,1.63-19.24.05-1.31-.41-1.9,0-2.65-1.35-.6-1.08-.61-8.15-.07-9.56,1.53-3.91,6.88-1.69,8.42-5.5,1.92-4.75.07-14.73.07-19.83,0-5.93,0-11.85.02-17.78,0-4.31,2-12.68-2.17-15.09-4.85-2.8-6.47.06-6.49-6.91-.01-6.29-.65-7.51,5.96-7.51,6.26,0,12.52,0,18.78,0,2.68,0,5.37,0,8.05,0,1.92,0,8.22-1.05,9.99.08,2.05,1.31,2.54,8.12,1.59,10.69-1.58,4.27-5.04,1.21-7.78,4.09-2.4,2.52-.79,10.19-.75,13.63.07,5.16,3.57,6.29,8.5,4.24,4.32-1.8,6.91-6.72,9.85-10.13,1.19-1.39,5.36-4.83,5.55-6.45.26-2.25.74-.73-1.3-2.21-3.64-2.63-3.61-1.18-3.63-6.9-.02-6.92.74-7.08,7.63-7.06,6.22.02,12.44.03,18.66.04,3.71,0,14.63-1.91,17.39.26,1.51,1.19,1.64,9.87.77,11.71-1.59,3.36-8.16,2.32-11.39,4.93-4.26,3.44-7.69,8.41-11.43,12.42-2.14,2.3-4.4,4.52-6.46,6.89-2.8,3.22-2.88,3.31-.04,6.76,3.78,4.59,7.83,8.99,11.72,13.48,3.65,4.22,7.41,10.71,12.5,13.11,2.14,1.01,6.89.7,8.47,2.81,1.18,1.58.59,6.86.35,8.63-.76,5.49-5.75,3.27-10.52,3.15-6.89-.17-13.79-.36-20.68-.56-3.29-.1-12.59,1.49-14.89-.95-1.57-1.67-1.12-10.45.52-12,2.81-2.66,6.57.01,3.03-4.61-3.42-4.47-9.13-12.33-13.8-15.45-2.07-1.38-7.35-2.67-9.55-.81-2.58,2.17-1.18,9.57-1.23,12.36-.13,6.48.39,5.47,5.28,7.78,3.54,1.67,3.22,3.78,3.24,7.56.02,3.83.58,4.78-2.75,5.7-5.6,1.56-13.68-.03-19.5-.03v.31Z"/>
      <path d="m486.16,88.31c0,3.47,1.17,6.08-2.07,7.09-3.03.94-9.62-1.13-12.67-1.48-8.41-.96-16.85-1.71-25.26-2.67-3.63-.42-4.67-.18-5.19-3.98-.24-1.76-.93-7.53.16-9.22,2.6-3.99,7.88.07,6.37-6.45-1.61-6.98-8.73-5.39-14.5-5.73-6.19-.37-17.39-4.03-20.6,2.26-4,7.84,3.24,3.78,6.54,7.83,1.39,1.7,1.29,9.12.55,10.66-1.56,3.27-4.12,2.11-7.76,1.81-8.56-.7-17.11-1.4-25.69-1.79-2.08-.09-7.77.9-9.37-1.07-1.16-1.44-1.04-9.31-.39-10.63,1.29-2.61,2.11-1.61,4.39-2.51,3.03-1.19,4.15-2.7,5.54-5.62,3.7-7.76,6.41-16.14,9.62-24.12,3-7.47,6.02-14.93,9.04-22.39,1.68-4.14,3.38-8.28,5.02-12.44.65-1.65,1.25-5.2,2.55-6.4,2.42-2.25,10.87-.71,13.83-.71,5.03,0,17.58-2.36,21.44,1.37,2.5,2.41,3.43,8.41,4.68,11.6,2.02,5.15,4.05,10.29,6.09,15.43,3.73,9.43,7.48,18.85,11.14,28.3,2.73,7.04,4.32,18.56,11.55,21.87,5.54,2.53,4.89,2.52,4.89,9,.02,0,.05,0,.07,0Zm-56.36-65.95c-.56,1.08-.83,1.5-1,1.95-2.49,6.47-4.55,13.09-7.13,19.52-1.46,3.64-2.39,4.07,1.11,5.11,3.04.9,7.29.33,10.47.52,8.54.5,5.39-2.52,3.04-9.13-2.14-6-4.26-11.99-6.49-17.96Z"/>
      <path d="m192.09.75c4.55,0,14.16-1.84,17.57,1.48,1.98,1.93,2.84,6.35,3.91,8.86,1.95,4.6,3.91,9.2,5.87,13.8,3.03,7.11,6.07,14.21,9.1,21.32,2.88,6.75,5.13,14.54,8.8,20.86,2.7,4.66,8.11,2.6,9.74,7.07.53,1.47.71,8.87-.74,10.23-1.59,1.48-10.04.69-12.03.78-7.59.36-15.18.74-22.76,1.14-1.95.1-7.22,1.58-8.61-.39-.8-1.13-.74-8.4-.24-9.95,1.53-4.68,8.41-1.99,7.31-7.65-1.54-7.96-12.7-4.52-18.4-4.31-4.08.15-8.54-.11-12.58.48-3.53.51-4.05,1.79-5.14,5.49-1.09,3.69-1.13,3.12,2.14,3.98,4.09,1.06,5.07.69,5.35,5.33.18,3.07.85,7.09-1.93,8.78-1.88,1.14-6.09.65-8.08.82-4.5.37-9,.75-13.49,1.14-4.05.35-8.09.71-12.14,1.08-1.51.14-6.08,1.33-7.5.15-1.39-1.15-.5-7.33-.48-8.74.07-4.46.2-3.78,3.84-5.67,6.5-3.38,7.9-11.43,10.37-17.81,3.27-8.45,6.56-16.9,9.87-25.34,3.3-8.44,6.61-16.88,9.9-25.32,1.8-4.63,1.8-7.08,6.85-7.6,4.37-.45,9.13.02,13.52.02v-.02Zm-.08,21.49c-.53.49-.71.58-.77.72-3.04,8.08-6.08,16.17-9.1,24.25-.66,1.76.65,1.5,1.6,1.48,5.4-.16,10.79-.39,16.19-.5,1.82-.04,1.56-.87,1.11-2.06-1.93-5.13-3.8-10.29-5.72-15.42-1.04-2.77-2.15-5.51-3.31-8.46Z"/>
      <path d="m534.47,41.87c2.44-4.02,4.87-8.05,7.32-12.06,1.14-1.87,6.59-8.18,6.19-10.25-.52-2.67-4.15-1.28-5.72-2.66-2.59-2.26-1.25-8.09-1.24-11.16,0-4.75.32-4.65,5.11-4.82,4.6-.17,9.23,0,13.84,0,5.38,0,22.51-2.58,24.6,2.46.71,1.71.75,11.36-.1,12.99-1.5,2.86-4.52,2.01-7.16,3.94-2.9,2.12-4.59,5.87-6.44,8.81-2.95,4.67-5.93,9.33-8.92,13.97-2.5,3.87-5.01,7.73-7.51,11.59-2.11,3.25-5.65,7.05-6.77,10.84-1.35,4.56-1.86,19.7,1.89,22.24,4.64,3.14,7.02.91,7.33,7.57.11,2.22,1.06,7.95-.22,9.7-1.81,2.49-10.29-.73-12.79-1.16-8.71-1.52-17.45-2.88-26.2-4.15-3.45-.5-5.87,0-7.24-3.08-1.3-2.93-.39-11.27,2.05-12.85,4.03-2.6,6.48,1.81,7.27-3.95.57-4.14.87-11.05,0-15.12-1.7-7.98-10.08-17.02-14.5-23.91-4.38-6.83-8.15-15.68-13.95-21.36-2.12-2.07-5.67-1.82-7.46-3.5-2.51-2.35-1.48-6.84-1.4-10.11.15-5.88,2.48-5.04,7.8-5.01,5.23.02,10.47.04,15.7.05,5.22,0,10.48-.19,15.7,0,6.06.22,5.17,2.23,5.16,7.69,0,5.45.75,6.36-3.71,8.6-3.18,1.6-2.75.31-1.73,3.81,1.19,4.12,5.36,8.53,7.52,12.28.89,1.54,5.41,6.97,4.72,8.72.29-.04.57-.07.86-.11Z"/>
    </g>
  </g>
</svg>